<svg xmlns="http://www.w3.org/2000/svg" width="11.493147mm" height="11.209467mm" viewBox="0 0 11.493147 11.209467"><path fill="#1b1817" fill-rule="evenodd" d="M5.74604432 0C2.57280828 0 0 2.57280828 0 5.74674987c0 2.53894161 1.64641385 4.6926499 3.92994436 5.452886.28751388.05256388.39228888-.12488334.39228888-.27728333 0-.13617222-.0049389-.49776944-.00776111-.97719443-1.59843608.34713333-1.93569163-.77046665-1.93569163-.77046665-.26140832-.66357498-.63817498-.84031664-.63817498-.84031664-.52175832-.35665833.0395111-.34960277.0395111-.34960277.57679166.04092222.88018054.59231387.88018054.59231387.5125861.87806387 1.34514164.62441665 1.67251941.4776611.05221111-.37147499.20037777-.62476943.36477222-.76834998-1.2759972-.14499166-2.61761106-.63817499-2.61761106-2.84021383 0-.62723887.22401389-1.14017775.59160832-1.54199163-.05926666-.14534444-.25646944-.72954443.05609167-1.52082497 0 0 .48259999-.15451666 1.5804444.58913888.45825833-.12735277.95003054-.19120555 1.43862775-.19332222.48789166.00211667.97966387.06596945 1.43862775.19332222 1.09713886-.74365554 1.57868052-.58913888 1.57868052-.58913888.31361944.79128054.11641666 1.37548053.05715 1.52082497.3683.40181388.59090276.91475276.59090276 1.54199163 0 2.20768329-1.34373052 2.69345828-2.62396105 2.83562772.206375.17744722.39017221.52810832.39017221 1.06433053 0 .7679972-.00705555 1.38782775-.00705555 1.57621108 0 .1538111.10336389.33266943.3951111.27657777 2.28176662-.7616472 3.92676936-2.91394438 3.92676936-5.45218044C11.49314697 2.57280827 8.9199859 0 5.74604432 0"/></svg>