<svg xmlns="http://www.w3.org/2000/svg" width="400" height="400" viewBox="0 0 0 0 400 400"><path fill="#040404" fill-rule="evenodd" d="M221.783 53.791c-3.409 3.615-5.171 15.619-3.56 24.265 2.097 11.256 9.172 22.667 22.78 36.744 9.819 10.157 11.686 12.188 13.816 15.029 3.281 4.376 4.453 8.234 2.813 9.258-4.427 2.765-19.917 3.618-35.032 1.928-13.461-1.504-24.112-1.503-31 .003-2.031.444-5.455.695-10.6.777-15.54.248-30.297 3.652-44.6 10.289-1.87.868-4.808 2.096-6.529 2.729-10.195 3.753-17.98 9.442-35.271 25.774-10.068 9.509-11.056 10.372-13.547 11.835-3.555 2.087-7.527 6.656-11.853 13.635-7.426 11.979-7.457 12.005-13.443 11.569-14.093-1.025-24.655 2.511-26.153 8.758-2.301 9.592 14.862 29.366 25.49 29.366 3.958 0 1.155 2.393-6.626 5.657-9.21 3.864-12.008 8.74-18.468 32.193-2.139 7.765-3.423 11.718-6.887 21.2-1.138 3.115-.864 14.322.488 20 3.05 12.802 8.368 15.692 15.903 8.643 5.219-4.882 7.168-8.812 12.485-25.181 8.316-25.596 17.338-32.65 42.011-32.847 14.86-.119 19.021-1.984 34.8-15.602 7.836-6.763 9.014-7.589 13-9.121 4.327-1.664 10.526-4.74 19.339-9.596 9.562-5.269 14.751-7.234 28.25-10.699 6.232-1.599 16.984-3.986 21.611-4.796 1.1-.193 4.661-.814 7.914-1.381 15.568-2.711 27.541-3.646 31.486-2.458 4.972 1.497 10.34 2.356 29 4.641 14.42 1.766 20.2 3.296 29.689 7.861 20.857 10.036 30.826 10.12 31.617.268.314-3.908-.921-6.057-6.763-11.769-4.998-4.887-5.437-5.563-3.617-5.563 1.438 0 12.139 2.432 16.523 3.754 17.083 5.155 24.822 4.67 29.589-1.855 2.312-3.165.762-8.826-2.955-10.789-1.516-.801-2.456-.912-9.483-1.123-7.309-.218-7.951-.3-10.2-1.297-11.503-5.098-18.796-7.67-25.18-8.88-14.427-2.733-7.322-14.529 9.762-16.207 4.896-.481 7.014-1.351 9.487-3.896 5.927-6.098 4.522-21.377-2.981-32.405-.862-1.266-2.326-3.614-3.255-5.219-6.947-11.998-21.813-22.133-39.779-27.116l-2.345-.65-1.877-4.059c-1.033-2.232-2.855-6.218-4.049-8.858-7.59-16.783-14.842-29.423-19.929-34.737-8.253-8.622-25.561-13.379-32.224-8.857-2.344 1.59-2.747 1.302-8.718-6.243-4.999-6.317-8.261-7.801-10.929-4.972"/></svg>